# xmcd
# 
# Track frame offsets:
#     150
#     13695
#     25967
#     39695
#     49705
#     61387
#     73375
#     86187
#     98992
#     111675
#     122605
#     133915
#     143487
#     154512
# 
# Disc length: 2219
# 
# Revision: 2
# Processed by: cddbd v1.5.2PL0 Copyright (c) Steve Scherf et al.
# Submitted via: fre:ac v1.0.31
# 
DISCID=cd08a90e
DTITLE=Roots of Rhythm - Shake, Baby, Shake
DYEAR=1999
DGENRE=R&B
TTITLE0=Big Joe Turner - Shake Rattle, and Roll
TTITLE1=Louis Jordan and his Tympany Five - Choo Choo Boogie
TTITLE2=Cab Calloway - Calloway Boogie
TTITLE3=La Vern Baker - Jim Dandy
TTITLE4=Hank Ballard and the Midnighters - The Twist
TTITLE5=Chuck Berry - Johnny B. Goode
TTITLE6=Muddy Waters - Got My Mojo Workin'
TTITLE7=Big Mama Thornton - Hound Dog
TTITLE8=Jackie Brenston and His Delta Cats - Rocket "88"
TTITLE9=Little Richard - Tutti-Frutti
TTITLE10=Bo Diddley - Bo Diddley
TTITLE11=James Brown - Papa's Got a Brand New Bag
TTITLE12=Wilson Pickett - Land of 1,000 Dances
TTITLE13=Martha and the Vandellas - Dancing in the Street
EXTD=
EXTT0=
EXTT1=
EXTT2=
EXTT3=
EXTT4=
EXTT5=
EXTT6=
EXTT7=
EXTT8=
EXTT9=
EXTT10=
EXTT11=
EXTT12=
EXTT13=
PLAYORDER=
